<svg xmlns="http://www.w3.org/2000/svg" xmlns:xlink="http://www.w3.org/1999/xlink" preserveAspectRatio="xMidYMid" width="63" height="58" viewBox="0 0 63 58">
  <defs>
    <style>

      .cls-3 {
        fill: #000000;
      }
    </style>
  </defs>
  <g id="group-13svg">
    <path d="M61.073,57.781 C61.073,57.781 1.073,57.781 1.073,57.781 C0.245,57.781 -0.000,57.109 -0.000,56.281 C-0.000,56.281 -0.000,42.781 -0.000,42.781 C-0.000,41.953 0.672,41.281 1.500,41.281 C2.328,41.281 3.000,41.953 3.000,42.781 C3.000,42.781 3.000,54.781 3.000,54.781 C3.000,54.781 60.000,54.781 60.000,54.781 C60.000,54.781 60.000,42.781 60.000,42.781 C60.000,41.953 60.672,41.281 61.500,41.281 C62.328,41.281 63.000,41.953 63.000,42.781 C63.000,42.781 63.000,56.281 63.000,56.281 C63.000,57.109 61.901,57.781 61.073,57.781 Z" id="path-1" class="cls-3" fill-rule="evenodd"/>
    <path d="M18.699,21.907 C18.423,21.907 18.143,21.831 17.895,21.672 C17.195,21.227 16.990,20.300 17.435,19.602 C17.435,19.602 29.521,0.635 29.521,0.635 C30.072,-0.231 31.500,-0.231 32.051,0.635 C32.051,0.635 44.138,19.602 44.138,19.602 C44.583,20.300 44.378,21.227 43.679,21.672 C42.983,22.116 42.055,21.913 41.608,21.213 C41.608,21.213 30.786,4.231 30.786,4.231 C30.786,4.231 19.965,21.213 19.965,21.213 C19.680,21.662 19.194,21.907 18.699,21.907 Z" id="path-2" class="cls-3" fill-rule="evenodd"/>
    <path d="M31.500,44.281 C30.672,44.281 30.000,43.609 30.000,42.781 C30.000,42.781 30.000,1.781 30.000,1.781 C30.000,0.953 30.672,0.281 31.500,0.281 C32.328,0.281 33.000,0.953 33.000,1.781 C33.000,1.781 33.000,42.781 33.000,42.781 C33.000,43.609 32.328,44.281 31.500,44.281 Z" id="path-3" class="cls-3" fill-rule="evenodd"/>
  </g>
</svg>
