<svg xmlns="http://www.w3.org/2000/svg" xmlns:xlink="http://www.w3.org/1999/xlink" preserveAspectRatio="xMidYMid" width="61" height="44" viewBox="0 0 61 44">
  <defs>
    <style>

      .cls-3 {
        fill: #000000;
      }
    </style>
  </defs>
  <g id="group-15svg">
    <path d="M46.270,43.392 C46.270,43.392 46.270,43.392 46.270,43.392 C45.835,43.392 45.421,43.203 45.137,42.875 C45.137,42.875 31.990,27.721 31.990,27.721 C31.447,27.095 31.515,26.147 32.140,25.604 C32.767,25.061 33.713,25.129 34.256,25.754 C34.256,25.754 46.270,39.603 46.270,39.603 C46.270,39.603 58.291,25.754 58.291,25.754 C58.834,25.128 59.780,25.061 60.407,25.604 C61.033,26.147 61.100,27.095 60.557,27.721 C60.557,27.721 47.402,42.875 47.402,42.875 C47.117,43.203 46.704,43.392 46.270,43.392 Z" id="path-1" class="cls-3" fill-rule="evenodd"/>
    <path d="M44.531,42.031 C43.703,42.031 43.031,41.359 43.031,40.531 C43.031,40.531 43.031,23.365 43.031,23.365 C43.031,11.939 34.114,2.989 23.002,2.989 C11.891,2.989 3.081,11.860 3.081,23.185 C3.081,24.013 2.356,24.685 1.528,24.685 C0.700,24.685 0.001,24.013 0.001,23.185 C0.001,10.178 10.223,-0.011 23.016,-0.011 C35.810,-0.011 46.031,10.257 46.031,23.365 C46.031,23.365 46.031,40.531 46.031,40.531 C46.031,41.359 45.359,42.031 44.531,42.031 Z" id="path-2" class="cls-3" fill-rule="evenodd"/>
  </g>
</svg>
