<svg xmlns="http://www.w3.org/2000/svg" xmlns:xlink="http://www.w3.org/1999/xlink" preserveAspectRatio="xMidYMid" width="43" height="60" viewBox="0 0 43 60">
  <defs>
    <style>

      .cls-3 {
        fill: #000000;
      }
    </style>
  </defs>
  <g id="group-16svg">
    <path d="M16.930,59.317 C16.581,59.317 16.231,59.196 15.947,58.950 C15.947,58.950 0.792,45.797 0.792,45.797 C0.464,45.512 0.275,45.099 0.275,44.664 C0.275,44.229 0.464,43.815 0.793,43.531 C0.793,43.531 15.948,30.385 15.948,30.385 C16.574,29.841 17.522,29.908 18.063,30.535 C18.606,31.160 18.539,32.107 17.913,32.650 C17.913,32.650 4.064,44.664 4.064,44.664 C4.064,44.664 17.914,56.685 17.914,56.685 C18.539,57.228 18.606,58.175 18.063,58.801 C17.767,59.143 17.350,59.317 16.930,59.317 Z" id="path-1" class="cls-3" fill-rule="evenodd"/>
    <path d="M19.303,47.250 C19.303,47.250 1.511,47.250 1.511,47.250 C0.683,47.250 0.011,46.578 0.011,45.750 C0.011,44.922 0.683,44.250 1.511,44.250 C1.511,44.250 19.303,44.250 19.303,44.250 C30.452,44.250 39.522,34.996 39.522,23.622 C39.522,12.248 30.393,2.994 19.170,2.994 C18.342,2.994 17.670,2.322 17.670,1.494 C17.670,0.666 18.342,-0.006 19.170,-0.006 C32.047,-0.006 42.522,10.594 42.522,23.622 C42.522,36.650 32.106,47.250 19.303,47.250 Z" id="path-2" class="cls-3" fill-rule="evenodd"/>
  </g>
</svg>
